<svg width="29" height="27" viewBox="0 0 29 27" fill="none" xmlns="http://www.w3.org/2000/svg">
<g id="friend icon">
<g id="Vector">
<path d="M9.12439 21.1236H28.8649C29.0918 17.1715 27.5035 9.26715 19.335 9.26715C11.1665 9.26715 9.12439 17.1715 9.12439 21.1236Z" fill="#5A3D2B"/>
<path d="M24.933 5.97369C24.933 9.24776 22.2788 11.9019 19.0048 11.9019C15.7307 11.9019 13.0765 9.24776 13.0765 5.97369C13.0765 2.69961 15.7307 0.0454559 19.0048 0.0454559C22.2788 0.0454559 24.933 2.69961 24.933 5.97369Z" fill="#5A3D2B"/>
</g>
<g id="Vector_2">
<path d="M1.87878 25.0758H21.6193C21.8462 21.1236 20.2579 13.2193 12.0894 13.2193C3.92091 13.2193 1.87878 21.1236 1.87878 25.0758Z" fill="#5A3D2B"/>
<path d="M17.6874 9.92583C17.6874 13.1999 15.0332 15.8541 11.7592 15.8541C8.4851 15.8541 5.83094 13.1999 5.83094 9.92583C5.83094 6.65176 8.4851 3.9976 11.7592 3.9976C15.0332 3.9976 17.6874 6.65176 17.6874 9.92583Z" fill="#5A3D2B"/>
<path d="M1.37878 25.0758V25.5758H1.87878H21.6193H22.0914L22.1185 25.1044C22.2357 23.0634 21.8881 19.9969 20.4384 17.4203C19.6254 15.9754 18.4667 14.6894 16.867 13.8292C17.6953 12.747 18.1874 11.3939 18.1874 9.92583C18.1874 6.37562 15.3094 3.4976 11.7592 3.4976C8.20895 3.4976 5.33094 6.37562 5.33094 9.92583C5.33094 11.5002 5.89693 12.9424 6.83653 14.06C5.40208 14.9082 4.30941 16.0901 3.49597 17.402C1.90291 19.9712 1.37878 23.0333 1.37878 25.0758Z" stroke="#F9F9F9"/>
</g>
</g>
</svg>
