<svg width="32" height="29" viewBox="0 0 32 29" fill="none" xmlns="http://www.w3.org/2000/svg">
<path d="M9.10522 23.5789H31.1879C31.4417 19.1579 29.6649 10.3158 20.5273 10.3158C11.3896 10.3158 9.10522 19.1579 9.10522 23.5789Z" fill="#6F6F6F"/>
<path d="M26.7894 6.63158C26.7894 10.2941 23.8204 13.2632 20.1579 13.2632C16.4953 13.2632 13.5263 10.2941 13.5263 6.63158C13.5263 2.96906 16.4953 0 20.1579 0C23.8204 0 26.7894 2.96906 26.7894 6.63158Z" fill="#C7C7C7"/>
<path d="M1 28H23.0826C23.3365 23.5789 21.5597 14.7368 12.422 14.7368C3.28441 14.7368 1 23.5789 1 28Z" fill="#6F6F6F"/>
<path d="M18.6842 11.0526C18.6842 14.7151 15.7152 17.6842 12.0526 17.6842C8.39011 17.6842 5.42105 14.7151 5.42105 11.0526C5.42105 7.39011 8.39011 4.42105 12.0526 4.42105C15.7152 4.42105 18.6842 7.39011 18.6842 11.0526Z" fill="#C7C7C7"/>
<path d="M0.5 28V28.5H1H23.0826H23.5547L23.5818 28.0287C23.7124 25.7532 23.3245 22.335 21.7099 19.4653C20.7953 17.8397 19.4878 16.395 17.6766 15.4384C18.6213 14.2288 19.1842 12.7064 19.1842 11.0526C19.1842 7.11397 15.9913 3.92105 12.0526 3.92105C8.11397 3.92105 4.92105 7.11397 4.92105 11.0526C4.92105 12.8246 5.56727 14.4455 6.63689 15.6928C5.01098 16.6388 3.77619 17.9686 2.85947 19.447C1.0847 22.3093 0.5 25.7231 0.5 28Z" stroke="white"/>
</svg>
