<svg width="28" height="50" viewBox="0 0 28 50" fill="none" xmlns="http://www.w3.org/2000/svg">
<path d="M8.56464 42.1878C9.23295 42.1878 9.75805 42.0084 10.1399 41.6495C10.5218 41.2906 10.7128 40.7891 10.7128 40.1452L10.3945 22.3636C10.3945 22.0891 10.4555 21.849 10.5775 21.6432C10.6995 21.4374 10.8825 21.2816 11.1265 21.1761C11.8266 20.87 12.3968 20.5348 12.8371 20.1706C13.2773 19.8064 13.5929 19.3393 13.7838 18.7693C13.9748 18.1993 14.0543 17.4498 14.0225 16.5209L13.577 6.79881C13.5452 6.07044 13.1792 5.70626 12.479 5.70626C12.1714 5.70626 11.9274 5.8039 11.7471 5.99919C11.5667 6.19447 11.4766 6.47157 11.4766 6.83047L11.5879 16.2834C11.5879 16.5684 11.5057 16.7901 11.3413 16.9484C11.1769 17.1067 10.9674 17.1859 10.7128 17.1859C10.437 17.1859 10.2142 17.1094 10.0445 16.9563C9.87474 16.8033 9.78987 16.5948 9.78987 16.3309L9.63075 6.54546C9.62014 6.20767 9.52202 5.94377 9.33638 5.75376C9.15073 5.56375 8.89349 5.46875 8.56464 5.46875C8.24639 5.46875 7.9918 5.56375 7.80085 5.75376C7.6099 5.94377 7.51442 6.20767 7.51442 6.54546L7.35531 16.3309C7.35531 16.5948 7.26779 16.8033 7.09276 16.9563C6.91772 17.1094 6.6976 17.1859 6.43239 17.1859C5.83834 17.1859 5.54132 16.8851 5.54132 16.2834L5.6527 6.83047C5.6527 6.47157 5.56518 6.19447 5.39014 5.99919C5.21511 5.8039 4.96847 5.70626 4.65023 5.70626C4.32138 5.70626 4.06148 5.80126 3.87053 5.99127C3.67958 6.18128 3.5735 6.45046 3.55229 6.79881L3.12266 16.5209C3.08022 17.4498 3.15448 18.1993 3.34543 18.7693C3.53637 19.3393 3.85197 19.8064 4.2922 20.1706C4.73244 20.5348 5.30263 20.87 6.00277 21.1761C6.25737 21.2816 6.44301 21.4374 6.5597 21.6432C6.67639 21.849 6.73473 22.0891 6.73473 22.3636L6.43239 40.1452C6.42179 40.7891 6.60744 41.2906 6.98933 41.6495C7.37122 42.0084 7.89632 42.1878 8.56464 42.1878ZM21.0238 28.3806L20.6738 40.0661C20.6527 40.7522 20.8383 41.2774 21.2308 41.6416C21.6233 42.0058 22.1484 42.1878 22.8061 42.1878C23.4744 42.1878 24.0047 42.0216 24.3972 41.6891C24.7898 41.3565 24.9861 40.8735 24.9861 40.2402V6.6563C24.9861 6.25517 24.8694 5.95697 24.6359 5.76168C24.4026 5.56639 24.1374 5.46875 23.8403 5.46875C23.5433 5.46875 23.2834 5.5532 23.0606 5.72209C22.8379 5.89099 22.5939 6.16017 22.3287 6.52963C21.6922 7.42689 21.1141 8.49569 20.5943 9.73602C20.0744 10.9764 19.6262 12.3328 19.2497 13.8054C18.8731 15.2779 18.584 16.8059 18.3825 18.3893C18.1809 19.9727 18.0801 21.5561 18.0801 23.1394V23.9154C18.0801 24.4643 18.1809 24.9394 18.3825 25.3405C18.584 25.7416 18.881 26.0741 19.2736 26.338L20.2282 26.9713C20.5041 27.1719 20.7083 27.3857 20.8409 27.6126C20.9735 27.8396 21.0345 28.0956 21.0238 28.3806Z" fill="#8E8E93"/>
</svg>
