<svg width="25" height="45" viewBox="0 0 25 45" fill="none" xmlns="http://www.w3.org/2000/svg">
<g id="fork.knife">
<g id="Group">
<path id="Vector" d="M7.64702 37.9691C8.24372 37.9691 8.71256 37.8076 9.05353 37.4846C9.39452 37.1615 9.56501 36.7102 9.56501 36.1307L9.28085 20.1272C9.28085 19.8802 9.33531 19.6641 9.44424 19.4789C9.55316 19.2936 9.71654 19.1535 9.93439 19.0585C10.5595 18.783 11.0686 18.4813 11.4617 18.1536C11.8548 17.8258 12.1365 17.4054 12.307 16.8924C12.4775 16.3794 12.5485 15.7048 12.5201 14.8688L12.1223 6.11893C12.0939 5.4634 11.7671 5.13563 11.142 5.13563C10.8673 5.13563 10.6495 5.22351 10.4885 5.39927C10.3275 5.57503 10.247 5.82441 10.247 6.14743L10.3464 14.655C10.3464 14.9115 10.273 15.1111 10.1262 15.2536C9.97938 15.3961 9.79232 15.4673 9.56501 15.4673C9.31874 15.4673 9.11984 15.3984 8.96829 15.2607C8.81675 15.1229 8.74098 14.9353 8.74098 14.6978L8.5989 5.89092C8.58943 5.5869 8.50182 5.34939 8.33607 5.17839C8.17032 5.00738 7.94063 4.92188 7.64702 4.92188C7.36287 4.92188 7.13555 5.00738 6.96507 5.17839C6.79457 5.34939 6.70932 5.5869 6.70932 5.89092L6.56726 14.6978C6.56726 14.9353 6.48912 15.1229 6.33284 15.2607C6.17655 15.3984 5.98001 15.4673 5.74323 15.4673C5.21282 15.4673 4.94762 15.1966 4.94762 14.655L5.04707 6.14743C5.04707 5.82441 4.96893 5.57503 4.81264 5.39927C4.65637 5.22351 4.43615 5.13563 4.15201 5.13563C3.85839 5.13563 3.62634 5.22114 3.45585 5.39215C3.28536 5.56315 3.19064 5.80541 3.1717 6.11893L2.7881 14.8688C2.75022 15.7048 2.81652 16.3794 2.98701 16.8924C3.15749 17.4054 3.43927 17.8258 3.83234 18.1536C4.22541 18.4813 4.73451 18.783 5.35963 19.0585C5.58695 19.1535 5.75271 19.2936 5.85689 19.4789C5.96108 19.6641 6.01317 19.8802 6.01317 20.1272L5.74323 36.1307C5.73376 36.7102 5.89951 37.1615 6.24049 37.4846C6.58146 37.8076 7.0503 37.9691 7.64702 37.9691ZM18.7713 25.5426L18.4588 36.0595C18.4399 36.677 18.6057 37.1497 18.9561 37.4774C19.3065 37.8052 19.7753 37.9691 20.3626 37.9691C20.9593 37.9691 21.4328 37.8194 21.7832 37.5202C22.1338 37.2208 22.309 36.7862 22.309 36.2162V5.99067C22.309 5.62966 22.2048 5.36127 21.9964 5.18551C21.788 5.00975 21.5512 4.92188 21.286 4.92188C21.0208 4.92188 20.7888 4.99788 20.5898 5.14988C20.391 5.30189 20.1732 5.54415 19.9363 5.87667C19.3681 6.6842 18.8519 7.64612 18.3878 8.76242C17.9236 9.87872 17.5234 11.0995 17.1872 12.4248C16.851 13.7501 16.5929 15.1253 16.4129 16.5504C16.233 17.9754 16.143 19.4005 16.143 20.8255V21.5239C16.143 22.0179 16.233 22.4454 16.4129 22.8064C16.5929 23.1675 16.8581 23.4667 17.2085 23.7042L18.0609 24.2742C18.3073 24.4547 18.4896 24.6471 18.6079 24.8513C18.7264 25.0556 18.7808 25.286 18.7713 25.5426Z" fill="#5A3D2B"/>
</g>
</g>
</svg>
