<svg width="40" height="40" viewBox="0 0 40 40" fill="none" xmlns="http://www.w3.org/2000/svg">
<g id="chef hat">
<g id="Rectangle 3">
<path d="M22.5076 11.8765L11.3 21.2236L21.4501 33.3939L22.686 32.3632C22.0242 31.0239 24.8922 28.4139 26.409 27.2762C29.6304 24.5896 31.0856 24.6972 31.4106 25.0868L32.6577 24.0468L22.5076 11.8765Z" fill="#F98012"/>
<path d="M26.409 27.2762C29.6304 24.5896 31.0856 24.6972 31.4106 25.0868L22.686 32.3632C22.0242 31.0239 24.8922 28.4139 26.409 27.2762Z" fill="#F98012"/>
</g>
<circle id="Ellipse 6" cx="5.97334" cy="5.97334" r="5.97334" transform="matrix(-0.767969 0.640487 0.640487 0.767969 15.597 5.35617)" fill="#F98012"/>
<circle id="Ellipse 7" cx="5.97334" cy="5.97334" r="5.97334" transform="matrix(-0.767969 0.640487 0.640487 0.767969 25.0799 3.66986)" fill="#F98012"/>
<circle id="Ellipse 8" cx="5.97334" cy="5.97334" r="5.97334" transform="matrix(-0.767969 0.640487 0.640487 0.767969 12.2354 14.3822)" fill="#F98012"/>
<ellipse id="Ellipse 19" cx="26.8104" cy="28.3955" rx="7.2969" ry="2.5952" transform="rotate(-39.8282 26.8104 28.3955)" fill="#5A3D2B"/>
</g>
</svg>
