<svg width="171" height="56" viewBox="0 0 171 56" fill="none" xmlns="http://www.w3.org/2000/svg">
<g id="Group 481475">
<g id="Vector">
<path d="M24.4766 29.7885H13.9979V28.2436C14.3143 28.0588 14.6438 27.8871 14.9865 27.7287C15.3292 27.5702 15.7246 27.425 16.1728 27.2929V19.2912C16.1728 17.0201 15.9487 15.3564 15.5005 14.3001C15.0788 13.2173 14.2352 12.676 12.9698 12.676C11.9154 12.676 11.0191 13.0457 10.281 13.7851C9.54285 14.4981 9.01562 15.33 8.69929 16.2807V27.2929C9.12107 27.3986 9.49013 27.5174 9.80647 27.6494C10.1492 27.7815 10.505 27.9795 10.8741 28.2436V29.7885H0.395422V28.2436C1.21263 27.8211 2.08256 27.5042 3.00521 27.2929V3.28783L0 2.97093V1.42605C0.395422 1.2676 0.89629 1.10915 1.5026 0.950696C2.13528 0.792247 2.79432 0.660206 3.47971 0.554573C4.16511 0.422532 4.85051 0.316899 5.53591 0.237673C6.22131 0.13204 6.82762 0.0528158 7.35485 0H8.69929V13.9832H8.73883C9.00244 13.3758 9.35832 12.808 9.80647 12.2798C10.2546 11.7253 10.7555 11.2499 11.3091 10.8538C11.889 10.4313 12.5085 10.1012 13.1676 9.86348C13.8266 9.62581 14.5252 9.50697 15.2633 9.50697C16.3178 9.50697 17.2536 9.63901 18.0708 9.90309C18.9144 10.1408 19.6129 10.5765 20.1665 11.2103C20.7201 11.8441 21.1419 12.7024 21.4319 13.7851C21.7219 14.8414 21.8668 16.1883 21.8668 17.8256V27.2929C22.315 27.3986 22.7631 27.5174 23.2113 27.6494C23.6594 27.7815 24.0812 27.9795 24.4766 28.2436V29.7885Z" fill="#5A3D2B"/>
<path d="M26.163 19.8854C26.163 18.2745 26.4003 16.8353 26.8748 15.5677C27.3757 14.2737 28.0742 13.1777 28.9705 12.2798C29.8932 11.382 31.0004 10.6953 32.2921 10.22C33.5838 9.74464 35.0469 9.50697 36.6813 9.50697C38.5266 9.50697 40.1083 9.77105 41.4263 10.2992C42.7708 10.801 43.8648 11.514 44.7083 12.4383C45.5783 13.3362 46.2109 14.4321 46.6064 15.7261C47.0018 16.9937 47.1995 18.3801 47.1995 19.8854C47.1995 21.4963 46.9623 22.9488 46.4877 24.2428C46.0132 25.5104 45.3147 26.5931 44.392 27.491C43.4957 28.3889 42.3885 29.0755 41.0705 29.5508C39.7787 30.0262 38.3157 30.2638 36.6813 30.2638C34.8887 30.2638 33.3334 30.013 32.0153 29.5112C30.6972 28.983 29.6032 28.27 28.7333 27.3721C27.8634 26.4479 27.2175 25.3519 26.7957 24.0843C26.3739 22.7903 26.163 21.3907 26.163 19.8854ZM32.2921 19.8854C32.2921 21.0738 32.358 22.1697 32.4898 23.1732C32.648 24.1503 32.9116 24.9822 33.2806 25.6688C33.6497 26.3554 34.1506 26.8968 34.7832 27.2929C35.4159 27.6626 36.2331 27.8475 37.2349 27.8475C37.8148 27.8475 38.342 27.7155 38.8166 27.4514C39.2911 27.1609 39.6997 26.7119 40.0424 26.1045C40.3851 25.4708 40.6355 24.6521 40.7937 23.6486C40.9782 22.6187 41.0705 21.3643 41.0705 19.8854C41.0705 18.6706 40.9914 17.5747 40.8332 16.5976C40.7014 15.6205 40.451 14.7886 40.0819 14.102C39.7392 13.4154 39.2647 12.8872 38.6584 12.5175C38.0521 12.1214 37.2876 11.9233 36.3649 11.9233C35.6795 11.9233 35.0864 12.0686 34.5855 12.3591C34.0847 12.6231 33.6629 13.0721 33.3202 13.7059C32.9775 14.3133 32.7139 15.1319 32.5293 16.1618C32.3712 17.1654 32.2921 18.4065 32.2921 19.8854Z" fill="#5A3D2B"/>
<path d="M71.9035 29.7885H62.0179V28.2436C62.2816 28.0852 62.5715 27.9267 62.8879 27.7683C63.2306 27.5834 63.5996 27.425 63.9951 27.2929V19.4101C63.9951 18.1953 63.9555 17.1654 63.8764 16.3203C63.8237 15.4752 63.6919 14.7886 63.481 14.2605C63.2701 13.7059 62.9801 13.3098 62.6111 13.0721C62.242 12.808 61.7675 12.676 61.1876 12.676C60.344 12.676 59.6059 13.0061 58.9732 13.6663C58.3669 14.3001 57.9187 15.1451 57.6288 16.2015V27.2929C58.3405 27.5042 58.9996 27.8211 59.6059 28.2436V29.7885H49.3249V28.2436C49.694 28.0588 50.1026 27.8871 50.5507 27.7287C50.9988 27.5702 51.4602 27.425 51.9347 27.2929V12.7948L49.3249 12.4779V10.933C49.7467 10.7482 50.2607 10.5765 50.867 10.4181C51.4997 10.2596 52.1456 10.1276 52.8046 10.0219C53.4636 9.88989 54.0963 9.78425 54.7026 9.70503C55.3353 9.6258 55.8625 9.55978 56.2843 9.50697H57.6288V13.9832H57.6683C58.0901 12.742 58.8282 11.6856 59.8827 10.8142C60.9635 9.9427 62.2552 9.50697 63.7578 9.50697C64.3905 9.50697 65.01 9.57299 65.6163 9.70503C66.2226 9.83707 66.7762 10.0879 67.2771 10.4577C67.8043 10.801 68.2524 11.2895 68.6215 11.9233C68.9906 12.5571 69.2542 13.3758 69.4123 14.3793C69.8868 12.9268 70.6777 11.7517 71.7849 10.8538C72.8921 9.95591 74.2365 9.50697 75.8182 9.50697C76.7936 9.50697 77.6503 9.63901 78.3884 9.90309C79.1529 10.1408 79.7856 10.5765 80.2864 11.2103C80.8137 11.8441 81.2091 12.7024 81.4727 13.7851C81.7363 14.8678 81.8681 16.2411 81.8681 17.9048V27.2929C82.1352 27.3401 82.3999 27.4014 82.6623 27.4768C83.2805 27.6543 83.8857 27.9099 84.4779 28.2436V29.7885H74.1969V28.2436C74.8033 27.8475 75.4623 27.5306 76.1741 27.2929V18.697C76.1741 16.6372 75.9763 15.1187 75.5809 14.1416C75.2119 13.1645 74.3947 12.676 73.1293 12.676C72.1803 12.676 71.429 13.0325 70.8754 13.7455C70.3482 14.4585 69.9528 15.4092 69.6891 16.5976V27.2929C70.1373 27.425 70.5327 27.5702 70.8754 27.7287C71.2445 27.8871 71.5872 28.0588 71.9035 28.2436V29.7885Z" fill="#5A3D2B"/>
<path d="M104.163 26.4611C103.952 26.91 103.61 27.3721 103.135 27.8475C102.687 28.2964 102.12 28.7058 101.435 29.0755C100.776 29.4188 99.998 29.6961 99.1017 29.9073C98.2318 30.145 97.2828 30.2638 96.2547 30.2638C94.6203 30.2638 93.1704 30.0262 91.9051 29.5508C90.6397 29.0491 89.5853 28.3493 88.7417 27.4514C87.8981 26.5271 87.2523 25.4311 86.8041 24.1635C86.3823 22.8959 86.1714 21.4699 86.1714 19.8854C86.1714 16.5052 87.0545 13.9303 88.8208 12.161C90.587 10.3916 93.0386 9.50697 96.1756 9.50697C97.5201 9.50697 98.7722 9.69183 99.9321 10.0615C101.118 10.4313 102.094 11.0386 102.858 11.8837C103.649 12.7288 104.19 13.8379 104.479 15.2111C104.796 16.5844 104.783 18.2613 104.44 20.2419H92.3005C92.3268 22.3282 92.8541 23.9919 93.8822 25.2331C94.9366 26.4743 96.4788 27.0949 98.5086 27.0949C99.3785 27.0949 100.275 26.9628 101.197 26.6987C102.146 26.4347 102.885 26.0913 103.412 25.6688L104.163 26.4611ZM96.0175 11.7649C95.4902 11.7649 95.0157 11.8573 94.5939 12.0422C94.1985 12.227 93.8426 12.5703 93.5263 13.0721C93.2363 13.5474 92.9991 14.2076 92.8145 15.0527C92.63 15.8714 92.4982 16.9145 92.4191 18.1821H98.7854C98.9699 16.1222 98.8513 14.5377 98.4295 13.4286C98.0077 12.3194 97.2037 11.7649 96.0175 11.7649Z" fill="#5A3D2B"/>
<path d="M28.4763 55.5365H18.8379V54.0303C19.0949 53.8758 19.3777 53.7213 19.6861 53.5668C20.0202 53.3866 20.3801 53.2321 20.7656 53.1033V45.4176C20.7656 44.2331 20.727 43.229 20.6499 42.405C20.5985 41.5811 20.47 40.9117 20.2644 40.3967C20.0588 39.856 19.776 39.4698 19.4162 39.238C19.0564 38.9805 18.5937 38.8518 18.0283 38.8518C17.2058 38.8518 16.4861 39.1737 15.8693 39.8174C15.2781 40.4353 14.8412 41.2592 14.5585 42.2892V53.1033C15.2524 53.3093 15.895 53.6183 16.4861 54.0303V55.5365H6.46219V54.0303C6.82202 53.85 7.22041 53.6827 7.65735 53.5282C8.09429 53.3737 8.54408 53.2321 9.00673 53.1033V38.9677L6.46219 38.6587V37.1524C6.87343 36.9722 7.37462 36.8048 7.96578 36.6503C8.58264 36.4959 9.21235 36.3671 9.85491 36.2641C10.4975 36.1354 11.1143 36.0324 11.7055 35.9552C12.3223 35.8779 12.8364 35.8135 13.2476 35.762H14.5585V40.1263H14.597C15.0082 38.9162 15.7279 37.8863 16.756 37.0366C17.8098 36.1869 19.0692 35.762 20.5343 35.762C21.1511 35.762 21.7551 35.8264 22.3463 35.9552C22.9375 36.0839 23.4772 36.3285 23.9655 36.689C24.4796 37.0237 24.9165 37.5 25.2764 38.118C25.6362 38.7359 25.8932 39.5341 26.0474 40.5126C26.5101 39.0964 27.2812 37.9506 28.3607 37.0752C29.4402 36.1998 30.751 35.762 32.2931 35.762C33.2441 35.762 34.0795 35.8908 34.7991 36.1483C35.5445 36.38 36.1614 36.8048 36.6497 37.4228C37.1638 38.0407 37.5493 38.8776 37.8063 39.9332C38.0633 40.9889 38.1918 42.3278 38.1918 43.9499V53.1033C39.0657 53.2578 39.9139 53.5668 40.7364 54.0303V55.5365H30.7124V54.0303C31.3036 53.6441 31.9462 53.3351 32.6401 53.1033V44.7224C32.6401 42.714 32.4474 41.2335 32.0618 40.2808C31.702 39.3281 30.9052 38.8518 29.6715 38.8518C28.7462 38.8518 28.0137 39.1994 27.4739 39.8946C26.9599 40.5898 26.5743 41.5167 26.3173 42.6754V53.1033C26.7543 53.2321 27.1398 53.3737 27.4739 53.5282C27.8338 53.6827 28.1679 53.85 28.4763 54.0303V55.5365Z" fill="#5A3D2B"/>
<path d="M59.3126 49.9363C59.3126 50.5028 59.3126 50.992 59.3126 51.404C59.3383 51.8159 59.3769 52.2537 59.4283 52.7171L62.0885 53.1033V54.4551C61.7801 54.6096 61.356 54.7641 60.8162 54.9186C60.3022 55.0731 59.7496 55.2276 59.1584 55.382C58.593 55.5108 58.0275 55.6138 57.462 55.691C56.8966 55.794 56.3954 55.8713 55.9585 55.9228H54.6476C54.3906 55.3306 54.2364 54.7383 54.185 54.1461C54.1336 53.5539 54.095 52.833 54.0693 51.9833H53.8766C53.748 52.4983 53.5296 53.0004 53.2211 53.4896C52.9127 53.953 52.5143 54.3779 52.026 54.7641C51.5633 55.1246 51.0107 55.4207 50.3682 55.6524C49.7256 55.8841 49.0059 56 48.2092 56C47.361 56 46.5771 55.8713 45.8574 55.6138C45.1377 55.3563 44.508 54.9958 43.9683 54.5324C43.4285 54.0689 43.0044 53.5153 42.696 52.8716C42.3876 52.2022 42.2334 51.4555 42.2334 50.6315C42.2334 49.4729 42.4518 48.5202 42.8888 47.7735C43.3257 47.0268 44.0068 46.4217 44.9321 45.9583C45.8831 45.4691 47.0911 45.1086 48.5562 44.8769C50.0469 44.6451 51.8461 44.4778 53.9537 44.3748C54.1593 42.1604 54.0693 40.5383 53.6838 39.5084C53.2983 38.4785 52.4629 37.9635 51.1778 37.9635C50.381 37.9635 49.6485 38.0922 48.9802 38.3497L47.1682 42.9844H45.4719C45.2662 42.6754 45.0606 42.3278 44.855 41.9416C44.6751 41.5296 44.4952 41.1048 44.3153 40.667C44.161 40.2036 44.0197 39.7401 43.8912 39.2766C43.7884 38.8132 43.7112 38.3626 43.6598 37.9249C44.6365 37.2554 45.8959 36.7276 47.4381 36.3414C48.9802 35.9552 50.6123 35.762 52.3344 35.762C53.7995 35.762 54.9946 35.9294 55.9199 36.2641C56.8452 36.5731 57.5649 37.0108 58.0789 37.5773C58.6187 38.118 58.9913 38.7617 59.197 39.5084C59.4026 40.2551 59.5054 41.0533 59.5054 41.903C59.5054 43.4478 59.4668 44.8511 59.3897 46.1128C59.3383 47.3487 59.3126 48.6232 59.3126 49.9363ZM50.6381 52.9102C51.1778 52.9102 51.6404 52.8072 52.026 52.6013C52.4115 52.3953 52.7328 52.1507 52.9898 51.8674C53.2726 51.5842 53.4782 51.2752 53.6067 50.9405C53.7609 50.6058 53.8766 50.3097 53.9537 50.0522V46.19C52.7456 46.2157 51.7561 46.293 50.985 46.4217C50.214 46.5505 49.61 46.7693 49.173 47.0783C48.7361 47.3615 48.4276 47.7349 48.2477 48.1983C48.0935 48.6361 48.0164 49.1768 48.0164 49.8205C48.0164 50.7989 48.2477 51.5585 48.7104 52.0992C49.173 52.6399 49.8156 52.9102 50.6381 52.9102Z" fill="#5A3D2B"/>
<path d="M76.9949 51.713C76.8664 52.2794 76.6351 52.8201 76.3009 53.3351C75.9668 53.85 75.5684 54.3135 75.1058 54.7255C74.6431 55.1117 74.1162 55.4207 73.5251 55.6524C72.9339 55.8841 72.3042 56 71.6359 56C69.0914 56 67.1509 55.2018 65.8143 53.6054C64.5035 51.9833 63.8481 49.5115 63.8481 46.19C63.8481 44.4906 64.0794 43.0101 64.5421 41.7485C65.0047 40.4611 65.6473 39.3796 66.4697 38.5042C67.3179 37.6288 68.3332 36.9722 69.5155 36.5345C70.6978 36.0968 72.0086 35.8779 73.448 35.8779C73.9106 35.8779 74.2961 35.8908 74.6046 35.9165C74.9387 35.9423 75.2343 35.9809 75.4913 36.0324C75.774 36.0581 76.0311 36.1225 76.2624 36.2255C76.5194 36.3028 76.8021 36.3929 77.1106 36.4959V29.6984L74.1805 29.3894V27.8831C74.5403 27.7287 75.0287 27.587 75.6455 27.4583C76.2881 27.3296 76.9564 27.2137 77.6503 27.1107C78.3443 26.982 79.0254 26.8661 79.6937 26.7631C80.3619 26.6601 80.9145 26.57 81.3515 26.4928L81.605 27.4768H82.6623V52.7944L85.2068 53.1033V54.4551C84.847 54.6354 84.3844 54.8027 83.8189 54.9572C83.2534 55.1117 82.6623 55.2533 82.0454 55.382C81.4286 55.5108 80.8246 55.6138 80.2334 55.691C79.668 55.794 79.1925 55.8713 78.8069 55.9228H77.4961L77.1491 51.713H76.9949ZM73.4865 52.9102C74.3861 52.9102 75.1443 52.627 75.7612 52.0606C76.378 51.4941 76.8278 50.5285 77.1106 49.1639V38.7746C76.7764 38.5686 76.3523 38.4012 75.8383 38.2725C75.3499 38.1437 74.7331 38.0794 73.9877 38.0794C72.497 38.0794 71.4303 38.7617 70.7878 40.1263C70.1452 41.4652 69.8239 43.4221 69.8239 45.9969C69.8239 48.0825 70.1066 49.7561 70.6721 51.0178C71.2376 52.2794 72.1757 52.9102 73.4865 52.9102Z" fill="#5A3D2B"/>
<path d="M104.469 52.2923C104.264 52.73 103.93 53.1806 103.467 53.6441C103.03 54.0818 102.478 54.4809 101.809 54.8413C101.167 55.1761 100.409 55.4464 99.5346 55.6524C98.6864 55.8841 97.7612 56 96.7588 56C95.1652 56 93.7516 55.7683 92.5179 55.3048C91.2841 54.8156 90.2561 54.1333 89.4336 53.2578C88.6111 52.3567 87.9814 51.2881 87.5444 50.0522C87.1332 48.8163 86.9276 47.4259 86.9276 45.881C86.9276 42.5853 87.7886 40.0748 89.5107 38.3497C91.2327 36.6246 93.6231 35.762 96.6817 35.762C97.9925 35.762 99.2133 35.9423 100.344 36.3028C101.501 36.6632 102.452 37.2554 103.197 38.0794C103.968 38.9033 104.495 39.9847 104.778 41.3236C105.086 42.6625 105.074 44.2975 104.739 46.2286H92.9034C92.9291 48.2627 93.4432 49.8848 94.4456 51.095C95.4736 52.3052 96.9772 52.9102 98.9563 52.9102C99.8045 52.9102 100.678 52.7815 101.578 52.524C102.503 52.2665 103.223 51.9318 103.737 51.5198L104.469 52.2923ZM96.5274 37.9635C96.0134 37.9635 95.5508 38.0536 95.1395 38.2339C94.754 38.4141 94.407 38.7488 94.0986 39.238C93.8158 39.7015 93.5845 40.3452 93.4046 41.1691C93.2247 41.9673 93.0962 42.9844 93.0191 44.2203H99.2262C99.4061 42.2119 99.2905 40.667 98.8792 39.5856C98.468 38.5042 97.6841 37.9635 96.5274 37.9635Z" fill="#5A3D2B"/>
</g>
<g id="chef hat">
<g id="Rectangle 3">
<path d="M155.707 19.2307L125.957 19.2307L125.957 54.2307L129.238 54.2307C129.95 51.023 137.848 50.6531 141.708 50.8691C150.259 50.8691 152.397 53.1102 152.397 54.2307L155.707 54.2307L155.707 19.2307Z" fill="#F98012"/>
<path d="M141.708 50.8691C150.259 50.8691 152.397 53.1102 152.397 54.2307L129.238 54.2307C129.95 51.023 137.848 50.6531 141.708 50.8691Z" fill="#F98012"/>
</g>
<circle id="Ellipse 6" cx="12.1769" cy="12.1769" r="12.1769" transform="matrix(-1 8.74228e-08 8.74228e-08 1 153.401 0)" fill="#F98012"/>
<circle id="Ellipse 7" cx="12.1769" cy="12.1769" r="12.1769" transform="matrix(-1 8.74228e-08 8.74228e-08 1 170.449 9.74149)" fill="#F98012"/>
<circle id="Ellipse 8" cx="12.1769" cy="12.1769" r="12.1769" transform="matrix(-1 8.74228e-08 8.74228e-08 1 136.354 9.74149)" fill="#F98012"/>
<ellipse id="Ellipse 19" cx="140.875" cy="53.375" rx="14.875" ry="2.625" fill="#5A3D2B"/>
</g>
</g>
</svg>
