<svg width="29" height="30" viewBox="0 0 29 30" fill="none" xmlns="http://www.w3.org/2000/svg">
<g clip-path="url(#clip0_2_12)">
<path d="M0 12.1338C0 13.8064 0.301322 15.375 0.903966 16.8398C1.50661 18.3046 2.34254 19.5946 3.41175 20.7096C4.48095 21.8246 5.71783 22.6964 7.12237 23.3249C8.52692 23.9533 10.0311 24.2675 11.6349 24.2675C12.8985 24.2675 14.1038 24.0648 15.2507 23.6594C16.3977 23.2539 17.4475 22.6964 18.4 21.9868L25.5735 29.4829C25.7484 29.6553 25.9404 29.7846 26.1493 29.8708C26.3583 29.9569 26.5795 30 26.8128 30C27.1432 30 27.4348 29.9214 27.6875 29.7643C27.9403 29.6071 28.1371 29.3917 28.278 29.1181C28.419 28.8444 28.4894 28.5402 28.4894 28.2057C28.4894 27.9625 28.4481 27.7344 28.3655 27.5215C28.2829 27.3086 28.1639 27.1211 28.0084 26.959L20.8787 19.478C21.6271 18.4643 22.2127 17.334 22.6355 16.0871C23.0583 14.8403 23.2698 13.5225 23.2698 12.1338C23.2698 10.4612 22.9685 8.89254 22.3659 7.42777C21.7632 5.963 20.9273 4.67309 19.8581 3.55804C18.7889 2.44298 17.552 1.57121 16.1474 0.942726C14.7429 0.314242 13.2387 0 11.6349 0C10.0311 0 8.52692 0.314242 7.12237 0.942726C5.71783 1.57121 4.48095 2.44298 3.41175 3.55804C2.34254 4.67309 1.50661 5.963 0.903966 7.42777C0.301322 8.89254 0 10.4612 0 12.1338ZM2.49319 12.1338C2.49319 10.816 2.7289 9.58185 3.20032 8.43132C3.67175 7.28078 4.32786 6.2671 5.16863 5.39026C6.00942 4.51343 6.98143 3.82919 8.08466 3.33755C9.18789 2.84591 10.3713 2.6001 11.6349 2.6001C12.8985 2.6001 14.0819 2.84591 15.1852 3.33755C16.2884 3.82919 17.2579 4.51343 18.0938 5.39026C18.9298 6.2671 19.5859 7.28078 20.0622 8.43132C20.5385 9.58185 20.7766 10.816 20.7766 12.1338C20.7766 13.4516 20.5385 14.6857 20.0622 15.8363C19.5859 16.9868 18.9298 17.9979 18.0938 18.8697C17.2579 19.7415 16.2884 20.4257 15.1852 20.9224C14.0819 21.4191 12.8985 21.6675 11.6349 21.6675C10.3713 21.6675 9.18789 21.4191 8.08466 20.9224C6.98143 20.4257 6.00942 19.7415 5.16863 18.8697C4.32786 17.9979 3.67175 16.9868 3.20032 15.8363C2.7289 14.6857 2.49319 13.4516 2.49319 12.1338Z" fill="black" fill-opacity="0.85"/>
</g>
<defs>
<clipPath id="clip0_2_12">
<rect width="28.4894" height="30" fill="white"/>
</clipPath>
</defs>
</svg>
