<svg width="24" height="31" viewBox="0 0 24 31" fill="none" xmlns="http://www.w3.org/2000/svg">
<g clip-path="url(#clip0_30_362)">
<path d="M8.53268 9.24359C8.26634 9.24359 8.03804 9.14716 7.84779 8.95428C7.65754 8.76141 7.56242 8.52996 7.56242 8.25993C7.56242 7.9899 7.65754 7.75845 7.84779 7.56557C8.03804 7.3727 8.26634 7.27626 8.53268 7.27626H19.5481C19.805 7.27626 20.0309 7.3727 20.2259 7.56557C20.4209 7.75845 20.5185 7.9899 20.5185 8.25993C20.5185 8.52996 20.4209 8.76141 20.2259 8.95428C20.0309 9.14716 19.805 9.24359 19.5481 9.24359H8.53268ZM8.53268 13.3519C8.26634 13.3519 8.03804 13.2554 7.84779 13.0626C7.65754 12.8697 7.56242 12.6334 7.56242 12.3537C7.56242 12.0933 7.65754 11.8667 7.84779 11.6738C8.03804 11.481 8.26634 11.3845 8.53268 11.3845H16.8942C17.1605 11.3845 17.3887 11.481 17.579 11.6738C17.7693 11.8667 17.8645 12.0933 17.8645 12.3537C17.8645 12.6334 17.7693 12.8697 17.579 13.0626C17.3887 13.2554 17.1605 13.3519 16.8942 13.3519H8.53268ZM4.3805 31H22.8584C23.1724 31 23.4411 30.8867 23.6647 30.66C23.8882 30.4335 24 30.1611 24 29.8428C24 29.5921 23.9239 29.363 23.7716 29.1556C23.6195 28.9484 23.4292 28.8061 23.2009 28.7289C22.6017 28.4878 22.1712 28.0948 21.9096 27.5499C21.648 27.0051 21.5839 26.4024 21.717 25.7417C21.8502 25.0812 22.2116 24.4471 22.8014 23.8396C23.0678 23.5695 23.3341 23.232 23.6004 22.827C23.8668 22.4219 24 21.8577 24 21.1345V4.54224C24 3.03781 23.6314 1.90465 22.8941 1.14279C22.1569 0.380931 21.0511 0 19.5766 0H4.4233C2.94886 0 1.84304 0.37852 1.10583 1.13556C0.368608 1.8926 0 3.02816 0 4.54224V26.5302C0 28.0153 0.36623 29.1316 1.09869 29.879C1.83115 30.6263 2.92509 31 4.3805 31ZM4.50892 28.6711C3.78597 28.6711 3.23662 28.483 2.86088 28.1069C2.48514 27.7308 2.29727 27.2004 2.29727 26.5157C2.29727 25.8696 2.50892 25.3512 2.93223 24.9606C3.35553 24.5701 3.9239 24.3748 4.63733 24.3748H19.2771C19.4578 24.3748 19.6243 24.3603 19.7765 24.3314C19.4436 25.0836 19.2985 25.8382 19.3412 26.5952C19.384 27.3523 19.5957 28.0442 19.9762 28.6711H4.50892ZM4.08085 22.176C3.86207 22.176 3.67181 22.094 3.5101 21.9301C3.34839 21.7661 3.26754 21.5684 3.26754 21.337V3.06673C3.26754 2.83528 3.34839 2.64 3.5101 2.48087C3.67181 2.32174 3.86207 2.24218 4.08085 2.24218C4.29964 2.24218 4.49227 2.32174 4.65874 2.48087C4.82521 2.64 4.90844 2.83528 4.90844 3.06673V21.337C4.90844 21.5684 4.82521 21.7661 4.65874 21.9301C4.49227 22.094 4.29964 22.176 4.08085 22.176Z" fill="#8E8E93"/>
</g>
<defs>
<clipPath id="clip0_30_362">
<rect width="24" height="31" fill="white"/>
</clipPath>
</defs>
</svg>
