<svg width="21" height="27" viewBox="0 0 21 27" fill="none" xmlns="http://www.w3.org/2000/svg">
<g id="text.book.closed.fill" clip-path="url(#clip0_210_49)">
<g id="book">
<path id="Vector" d="M7.4661 8.05087C7.23305 8.05087 7.03329 7.96688 6.86681 7.79889C6.70035 7.6309 6.61711 7.42932 6.61711 7.19413C6.61711 6.95894 6.70035 6.75736 6.86681 6.58937C7.03329 6.42138 7.23305 6.33739 7.4661 6.33739H17.1046C17.3294 6.33739 17.5271 6.42138 17.6977 6.58937C17.8683 6.75736 17.9536 6.95894 17.9536 7.19413C17.9536 7.42932 17.8683 7.6309 17.6977 7.79889C17.5271 7.96688 17.3294 8.05087 17.1046 8.05087H7.4661ZM7.4661 11.629C7.23305 11.629 7.03329 11.545 6.86681 11.3771C6.70035 11.2091 6.61711 11.0033 6.61711 10.7597C6.61711 10.5329 6.70035 10.3355 6.86681 10.1675C7.03329 9.99955 7.23305 9.91556 7.4661 9.91556H14.7824C15.0154 9.91556 15.2151 9.99955 15.3816 10.1675C15.5481 10.3355 15.6314 10.5329 15.6314 10.7597C15.6314 11.0033 15.5481 11.2091 15.3816 11.3771C15.2151 11.545 15.0154 11.629 14.7824 11.629H7.4661ZM3.83294 27H20.0011C20.2758 27 20.511 26.9013 20.7066 26.7039C20.9022 26.5066 21 26.2693 21 25.9921C21 25.7738 20.9334 25.5742 20.8002 25.3936C20.667 25.2131 20.5006 25.0892 20.3008 25.0219C19.7765 24.812 19.3998 24.4697 19.1709 23.9951C18.942 23.5206 18.8859 22.9956 19.0024 22.4202C19.1189 21.8449 19.4352 21.2927 19.9513 20.7635C20.1843 20.5283 20.4173 20.2343 20.6503 19.8816C20.8834 19.5287 21 19.0374 21 18.4074V3.95615C21 2.64583 20.6774 1.65889 20.0323 0.995335C19.3873 0.331778 18.4197 0 17.1295 0H3.87038C2.58026 0 1.61266 0.329679 0.967597 0.989036C0.322532 1.64839 0 2.63743 0 3.95615V23.107C0 24.4005 0.320451 25.3727 0.961354 26.0236C1.60226 26.6745 2.55945 27 3.83294 27ZM3.9453 24.9716C3.31272 24.9716 2.83204 24.8078 2.50327 24.4802C2.1745 24.1527 2.01011 23.6907 2.01011 23.0943C2.01011 22.5315 2.19531 22.0801 2.5657 21.7399C2.93609 21.3997 3.43341 21.2296 4.05767 21.2296H16.8675C17.0256 21.2296 17.1712 21.217 17.3044 21.1918C17.0131 21.847 16.8862 22.5042 16.9236 23.1636C16.961 23.8229 17.1462 24.4256 17.4792 24.9716H3.9453ZM3.57075 19.3145C3.37931 19.3145 3.21284 19.2432 3.07134 19.1004C2.92984 18.9576 2.8591 18.7854 2.8591 18.5838V2.67102C2.8591 2.46944 2.92984 2.29935 3.07134 2.16075C3.21284 2.02217 3.37931 1.95287 3.57075 1.95287C3.76219 1.95287 3.93074 2.02217 4.0764 2.16075C4.22206 2.29935 4.29489 2.46944 4.29489 2.67102V18.5838C4.29489 18.7854 4.22206 18.9576 4.0764 19.1004C3.93074 19.2432 3.76219 19.3145 3.57075 19.3145Z" fill="#5A3D2B"/>
</g>
</g>
<defs>
<clipPath id="clip0_210_49">
<rect width="21" height="27" fill="white"/>
</clipPath>
</defs>
</svg>
