<svg width="24" height="27" viewBox="0 0 24 27" fill="none" xmlns="http://www.w3.org/2000/svg">
<g clip-path="url(#clip0_30_371)">
<path d="M1.92051 21.8565H22.0795C22.6815 21.8565 23.1521 21.7155 23.4913 21.4333C23.8304 21.1511 24 20.7749 24 20.3046C24 19.877 23.8771 19.4623 23.6312 19.0603C23.3853 18.6584 23.0779 18.2651 22.7091 17.8803C22.3402 17.4955 21.9735 17.1107 21.6089 16.726C21.3291 16.4352 21.1108 16.0546 20.954 15.5843C20.7971 15.114 20.6805 14.6138 20.6042 14.0837C20.5278 13.5535 20.4727 13.0404 20.4389 12.5444C20.4134 10.9026 20.2375 9.4404 19.911 8.15774C19.5846 6.87507 19.0779 5.79763 18.3911 4.92543C17.7043 4.05322 16.7971 3.41189 15.6693 3.00144C15.4319 2.16342 14.9953 1.45368 14.3593 0.87221C13.7234 0.290737 12.9349 0 11.9937 0C11.061 0 10.2767 0.290737 9.64071 0.87221C9.00478 1.45368 8.56811 2.16342 8.33069 3.00144C7.20298 3.41189 6.2936 4.05322 5.60256 4.92543C4.91151 5.79763 4.40489 6.87507 4.08268 8.15774C3.76047 9.4404 3.58665 10.9026 3.56122 12.5444C3.5273 13.0404 3.47218 13.5535 3.39587 14.0837C3.31956 14.6138 3.20297 15.114 3.04611 15.5843C2.88925 16.0546 2.67091 16.4352 2.3911 16.726C2.02651 17.1107 1.65978 17.4955 1.29094 17.8803C0.9221 18.2651 0.614733 18.6584 0.36884 19.0603C0.122947 19.4623 0 19.877 0 20.3046C0 20.7749 0.169582 21.1511 0.508745 21.4333C0.847908 21.7155 1.3185 21.8565 1.92051 21.8565ZM11.9937 27C12.7144 27 13.3588 26.8418 13.9269 26.5254C14.495 26.2091 14.9508 25.7943 15.2942 25.2812C15.6376 24.7682 15.8389 24.2124 15.8982 23.6138H8.10176C8.15264 24.2124 8.3519 24.7682 8.69954 25.2812C9.04718 25.7943 9.50506 26.2091 10.0732 26.5254C10.6412 26.8418 11.2814 27 11.9937 27Z" fill="#8E8E93"/>
</g>
<defs>
<clipPath id="clip0_30_371">
<rect width="24" height="27" fill="white"/>
</clipPath>
</defs>
</svg>
