<svg width="489" height="418" viewBox="0 0 489 418" fill="none" xmlns="http://www.w3.org/2000/svg">
<path d="M365.17 43.0286C363.894 41.8278 362.926 40.3383 362.346 38.6854C361.766 37.0325 361.592 35.2646 361.838 33.5304C363.152 24.4893 385.364 4.10812 399.573 5.75722C432.338 9.55867 464.525 22.7026 478.929 32.4968C480.68 33.6881 482.05 35.3581 482.876 37.307C483.702 39.256 483.949 41.4015 483.587 43.487C483.225 45.5726 482.271 47.5099 480.837 49.0674C479.403 50.6249 477.551 51.7366 475.501 52.2697L475.058 52.3811C460.11 56.0232 434.45 71.9875 440.553 96.7874C445.906 118.534 381.189 58.2145 365.17 43.0286Z" stroke="#415D62" stroke-width="10" stroke-miterlimit="10"/>
<path d="M54.6932 329.024C54.6932 329.024 33.1586 336.265 30.2675 347.791C27.3764 359.318 33.8558 362.338 50.9274 377.624L77.7925 402.931L92.0237 414.154C92.0237 414.154 97.1975 418.317 102.388 417.17C107.579 416.022 108.093 412.89 108.093 412.89C108.093 412.89 105.341 404.954 106.818 398.847C108.295 392.739 131.791 370.572 131.791 370.572L122.727 365.051C122.727 365.051 104.541 381.305 99.788 389.658C95.4554 397.273 97.8358 406.131 97.8358 406.131C97.8358 406.131 96.5854 407.174 92.4936 403.799C88.4018 400.425 50.4158 365.332 50.4158 365.332L40.8605 355.919C40.8605 355.919 36.1249 352.027 41.1041 345.54C46.0832 339.052 61.2053 335.638 61.2053 335.638L50.347 325.111" fill="#415D62"/>
<path d="M88.9006 350.364C88.9006 350.364 259.524 456.037 348.811 386.05C430.755 321.82 452.37 284.184 452.37 284.184C455.244 276.474 457.319 268.489 458.562 260.356C462.862 229.589 458.347 194.645 455.422 163.885C452.086 128.821 443.257 92.8095 435.306 60.7325C426.534 25.3428 370.65 34.9596 341.953 40.9016C322.276 44.9746 313.475 49.7092 295.158 57.8579C163.845 116.274 105.045 247.424 105.045 247.424C105.045 247.424 63.3684 328.512 88.9006 350.364Z" fill="#415D62"/>
<path d="M94.951 333.25C94.951 333.25 139.061 400.742 278.076 306.986C416.857 213.386 429.465 110.609 429.465 110.609C429.465 110.609 459.717 5.93102 323.883 53.0355C180.477 102.764 70.6728 292.219 94.951 333.25Z" fill="#2D3F45"/>
<path d="M261.917 319.301C392.174 238.509 422.333 135.463 422.333 135.463C437.87 96.7367 415.975 93.3416 408.803 88.2731C406.305 86.5072 404.336 83.848 402.47 81.4667C395.96 73.156 394.558 70.5294 388.863 61.681C387.67 59.8256 383.323 55.0629 381.438 53.8763C378.892 52.5119 376.207 51.4252 373.429 50.6351C368.086 48.9625 363.864 48.8403 358.554 51.0171C350.921 54.1451 345.942 58.9503 344.578 66.536C338.801 98.6628 319.128 109.655 316.765 110.869C316.603 110.952 316.449 111.049 316.305 111.16C264.403 151.063 270.875 125.415 239.753 135.302C208.587 145.204 208.173 169.891 201.535 210.28C194.897 250.668 147.074 264.194 129.134 262.92C96.1371 260.575 91.8144 233.327 99.0952 231.06C112.754 226.806 106.363 206.21 95.745 204.654C71.6235 201.119 66.4696 226.61 81.5908 251.985C99.9717 282.826 50.1821 273.461 58.6826 256.884C63.3403 247.799 62.3823 236.218 58.2172 227.101C53.9615 217.787 41.6074 212.911 31.832 213.149C19.3892 213.452 12.4887 224.513 9.11128 235.25C1.16585 260.502 22.7584 294.511 40.27 316.667C54.2957 334.458 73.8935 347.023 95.9189 352.348C132.488 361.147 192.398 362.422 261.917 319.301Z" fill="#C4501F"/>
<path d="M106.534 326.417C106.534 326.417 144.393 340.199 132.567 327.642C122.709 317.175 143.03 317.72 150.241 326.593C151.1 327.65 154.736 333.34 156.796 335.406C161.081 339.702 179.818 332.677 183.863 328.606C186.565 325.885 193.954 326.705 195.113 326.796C211.939 328.095 224.155 326.152 242.964 319.253C242.964 319.253 303.615 290.736 313.488 282.301C323.361 273.865 270.492 317.321 249.867 326.395C247.436 327.464 218.296 344.39 193.233 349.792C145.277 360.127 139.135 358.203 118.229 357.161C74.4468 354.979 51.5223 334.646 32.0286 313.429C14.4155 294.255 2.45798 254.566 0.320188 247.106C0.089494 246.308 0.0393853 245.469 0.173503 244.65C6.08436 209.145 26.8321 212.109 26.8321 212.109C30.7129 212.406 34.4695 213.611 37.7991 215.626C51.0569 224.019 50.625 242.868 48.144 256.241C47.8857 257.442 47.4618 258.602 46.8845 259.688C46.2507 260.438 44.8155 262.556 44.1971 263.316C41.6781 266.412 41.6491 268.407 41.0035 272.345C40.1081 278.749 40.1496 285.248 41.1267 291.64C44.5919 317.913 84.607 328.149 84.6088 328.15C90.0551 329.543 86.0014 323.471 84.6703 322.129C82.8868 320.38 80.9926 318.747 78.9994 317.241C77.4111 315.849 75.9282 314.341 74.5627 312.729C73.8283 311.962 72.9944 310.144 72.6612 309.801C68.257 305.297 69.4314 298.155 72.8034 292.835C73.7668 291.19 75.1968 289.867 76.9123 289.034C77.7728 288.631 78.7225 288.456 79.6701 288.526C80.6177 288.596 81.5314 288.908 82.3234 289.433C85.1222 291.498 84.6006 295.7 84.4702 299.175C84.2294 305.567 86.32 311.828 90.3529 316.794C94.3858 321.76 100.086 325.092 106.393 326.169C106 325.912 106.928 326.676 106.534 326.417Z" fill="#F29560"/>
<path d="M223.721 293.955C231.963 291.168 240.578 289.64 249.275 289.423C259.688 289.081 269.999 285.001 279.551 281.272C284.267 279.345 289.213 278.039 294.265 277.385C297.622 277.13 300.953 276.605 304.225 275.815C304.106 275.024 303.953 274.205 303.75 273.327C299.365 254.75 277.729 248.236 256.427 253.254C235.124 258.272 219.173 274.777 223.558 293.35C223.604 293.567 223.668 293.753 223.721 293.955Z" fill="#682528"/>
<path d="M265.277 289.237C270.463 289.717 275.693 289.174 280.669 287.638C283.562 285.919 286.443 284.184 289.315 282.433C291.617 281.026 298.748 277.52 301.034 276.524C300.712 275.041 298.703 271.448 297.582 269.507C290.123 256.593 279.402 249.815 261.124 258.839C245.791 266.411 239.871 273.555 241.823 288.273C241.906 288.895 242.016 289.465 242.138 290.01C242.162 290.01 242.184 290.01 242.207 290.01C249.975 290.119 257.481 288.663 265.277 289.237Z" fill="#DA7D74"/>
<path d="M382.004 175.201C385.888 168.081 393.98 169.212 400.849 169.345C400.994 169.345 401.132 169.361 401.27 169.374C405.215 164.899 408.768 160.094 411.891 155.011C407.189 149.056 382.422 147.803 382.422 147.803C365.807 144.356 346.997 165.039 346.997 165.039C346.997 165.039 319.722 201.076 326.933 218.621C329.755 211.414 354.834 203.892 358.596 201.696C361.873 199.785 367.531 196.446 379.711 187.952C379.183 183.568 379.981 179.127 382.004 175.201Z" fill="#E9B292"/>
<path d="M337.794 210.391C341.806 208.559 345.908 206.93 350.084 205.511C357.759 202.767 364.906 198.215 371.787 193.383C366.84 190.26 360.894 186.582 355.948 183.459C353.439 181.72 350.717 180.311 347.848 179.267C344.946 178.226 341.753 178.342 338.934 179.592C335.974 181.078 334.094 184.062 332.59 187.014C329.053 193.963 326.76 201.476 325.813 209.215C325.482 211.919 325.829 222.116 326.933 218.628C327.935 215.457 334.901 211.771 337.794 210.391Z" fill="#E57047"/>
<path d="M379.679 183.018C379.679 183.018 356.041 154.635 346.992 165.036C358.267 153.106 362.377 152.052 366.576 150.394C370.776 148.736 384.847 166.938 383.525 173.029C383.53 173.032 379.655 178.08 379.679 183.018Z" fill="#E57047"/>
<path d="M257.67 192.335C266.378 187.277 278.554 181.909 286.352 175.528C290.492 172.141 294.059 168.245 298.118 164.793C300.025 163.305 302.069 162.002 304.223 160.901C294.048 156.987 281.677 158.212 272.713 164.151C266.877 168.019 262.021 173.053 259.958 177.296C258.561 180.172 255.231 190.337 257.67 192.335Z" fill="#682528"/>
<path d="M222.879 251.397C226.642 248.5 229.559 244.666 232.856 241.246C236.152 237.826 240.072 234.688 244.742 233.811C241.71 230.964 237.925 229.045 233.836 228.281C229.747 227.517 225.524 227.939 221.668 229.499C217.812 231.059 214.483 233.691 212.076 237.082C209.67 240.474 208.285 244.484 208.088 248.638C207.887 251.633 208.079 255.411 208.079 255.411C212.022 256.015 219.865 253.72 222.879 251.397Z" fill="#E9B292"/>
<path d="M225.679 248.955C225.679 248.955 217.049 231.095 209.09 239.888C216.001 231.095 222.805 228.058 225.679 228.058C239.102 228.058 239.525 235.805 239.525 235.805L225.679 248.955Z" fill="#E57047"/>
<path d="M350.724 125.941C356.566 120.169 363.946 116.198 371.983 114.501C385.661 111.49 390.182 100.953 390.182 100.953C390.182 100.953 381.188 82.5881 365.506 91.0182C349.823 99.4484 350.724 125.941 350.724 125.941Z" fill="#682528"/>
<path d="M349.083 128.666C354.925 122.894 362.304 118.923 370.341 117.226C384.02 114.214 388.541 103.677 388.541 103.677C388.541 103.677 379.547 85.3124 363.864 93.7417C348.182 102.171 349.083 128.666 349.083 128.666Z" fill="#DA7D74"/>
<path d="M163.231 306.306C167.361 305.19 171.394 303.742 175.29 301.977C183.897 285.856 170.81 274.83 170.81 274.83C149.208 270.571 137.627 279.971 137.627 279.971C137.627 279.971 135.399 293.729 138.554 302.376C146.612 304.577 154.887 305.894 163.231 306.306Z" fill="#682528"/>
<path d="M135.028 301.331C141.438 303.324 148.014 304.738 154.676 305.557C157.504 302.299 158.854 297.239 157.91 291.833C156.397 283.17 149.566 276.892 142.65 277.812C140.81 278.059 139.073 278.806 137.629 279.971C133.785 283.035 131.767 288.864 132.867 295.167C133.242 297.327 133.972 299.41 135.028 301.331Z" fill="#DA7D74"/>
<path d="M289.903 212.048C289.903 212.048 285.215 224.926 280.513 228.058C280.513 228.058 287.219 234.279 293.258 233.07C299.297 231.861 297.956 212.048 297.956 212.048H289.903Z" fill="#64A031"/>
<path d="M186.24 312.675C186.24 312.675 187.881 319.24 194.117 319.568C200.353 319.895 210.536 312.675 210.536 312.675C210.536 312.675 204.296 309.598 204.296 305.557C204.299 305.557 194.777 312.347 186.24 312.675Z" fill="#64A031"/>
<path d="M74.8433 257.784C74.8433 257.784 89.4484 260.844 93.1544 260.079C96.8605 259.313 90.9378 251.687 90.9378 251.687C90.9378 251.687 83.9097 252.683 79.6078 250.819C77.2614 252.52 75.5776 254.981 74.8433 257.784Z" fill="#64A031"/>
<path d="M71.7554 197.13C71.7554 197.13 73.6746 188.488 83.0282 191.147C83.0282 191.147 83.1006 183.576 79.3371 182.085C75.5735 180.594 65.7756 185.882 64.1868 193.181L71.7554 197.13Z" fill="#64A031"/>
<path d="M287.231 154.548L301.037 145.014C301.037 145.014 299.606 139.295 294.134 140.248C288.663 141.201 287.231 154.548 287.231 154.548Z" fill="#64A031"/>
<path d="M347.302 225.318C347.302 225.318 354.482 219.13 355.389 215.775C355.389 215.775 360.97 217.443 361.614 220.934C362.258 224.425 349.198 229.501 349.198 229.501L347.302 225.318Z" fill="#64A031"/>
</svg>
