<svg width="31" height="28" viewBox="0 0 31 28" fill="none" xmlns="http://www.w3.org/2000/svg">
<path d="M10.9737 26.2415C10.9731 26.2413 10.9746 26.2379 10.9799 26.2315C10.977 26.2384 10.9743 26.2416 10.9737 26.2415ZM19.2651 26.3542C19.2637 26.3545 19.2543 26.3488 19.241 26.3357C19.2598 26.3472 19.2665 26.3538 19.2651 26.3542ZM22.6853 26V18.3297C22.7258 18.3305 22.7665 18.3309 22.8072 18.3309C26.3612 18.3309 29.2239 15.4216 29.2239 11.8556C29.2239 8.28953 26.3612 5.38025 22.8072 5.38025C22.3061 5.38025 21.8187 5.4381 21.3511 5.54748C20.539 2.91763 18.1093 1 15.2239 1C12.3385 1 9.90877 2.91764 9.09671 5.54749C8.62913 5.4381 8.14171 5.38025 7.64055 5.38025C4.08659 5.38025 1.22388 8.28953 1.22388 11.8556C1.22388 15.3582 3.98563 18.2272 7.45152 18.3281L7.45152 26V27L8.45152 27L10.0084 27H20.1284H21.6853H22.6853V26Z" stroke="#462F14" stroke-width="2"/>
</svg>
