<svg width="178" height="66" viewBox="0 0 178 66" fill="none" xmlns="http://www.w3.org/2000/svg">
<path d="M161.227 21.8797L127.379 21.8797L127.379 61.701L131.112 61.701C131.922 58.0514 140.908 57.6306 145.3 57.8763C155.029 57.8763 157.461 60.4261 157.461 61.701L161.227 61.701L161.227 21.8797Z" fill="#F98012"/>
<path d="M145.3 57.8763C155.029 57.8763 157.461 60.4261 157.461 61.701L131.112 61.701C131.922 58.0514 140.908 57.6306 145.3 57.8763Z" fill="#F98012"/>
<circle cx="13.8543" cy="13.8543" r="13.8543" transform="matrix(-1 8.74228e-08 8.74228e-08 1 158.604 0)" fill="#F98012"/>
<circle cx="13.8543" cy="13.8543" r="13.8543" transform="matrix(-1 8.74228e-08 8.74228e-08 1 178 11.0834)" fill="#F98012"/>
<circle cx="13.8543" cy="13.8543" r="13.8543" transform="matrix(-1 8.74228e-08 8.74228e-08 1 139.208 11.0834)" fill="#F98012"/>
<ellipse cx="144.352" cy="60.7275" rx="16.924" ry="2.9866" fill="#5A3D2B"/>
<path d="M24.7097 39.7652H14.1313V38.2203C14.4506 38.0354 14.7833 37.8638 15.1292 37.7053C15.4752 37.5469 15.8744 37.4016 16.3268 37.2696V29.2679C16.3268 26.9968 16.1006 25.3331 15.6482 24.2767C15.2224 23.194 14.3708 22.6526 13.0934 22.6526C12.0289 22.6526 11.124 23.0224 10.3789 23.7618C9.63374 24.4748 9.10149 25.3067 8.78214 26.2574V37.2696C9.20794 37.3752 9.58051 37.4941 9.89986 37.6261C10.2458 37.7582 10.6051 37.9562 10.9777 38.2203V39.7652H0.399188V38.2203C1.22418 37.7978 2.10239 37.4809 3.03383 37.2696V13.2645L0 12.9476V11.4027C0.399188 11.2443 0.904826 11.0858 1.51691 10.9274C2.15562 10.7689 2.82093 10.6369 3.51286 10.5313C4.20478 10.3992 4.89671 10.2936 5.58863 10.2144C6.28056 10.1087 6.89265 10.0295 7.4249 9.97668H8.78214V23.9599H8.82206C9.08818 23.3525 9.44745 22.7847 9.89986 22.2565C10.3523 21.7019 10.8579 21.2266 11.4168 20.8305C12.0023 20.4079 12.6276 20.0778 13.293 19.8402C13.9583 19.6025 14.6635 19.4837 15.4087 19.4837C16.4732 19.4837 17.4179 19.6157 18.2429 19.8798C19.0945 20.1174 19.7997 20.5532 20.3586 21.187C20.9175 21.8208 21.3433 22.6791 21.636 23.7618C21.9287 24.8181 22.0751 26.1649 22.0751 27.8022V37.2696C22.5275 37.3752 22.9799 37.4941 23.4323 37.6261C23.8848 37.7582 24.3106 37.9562 24.7097 38.2203V39.7652Z" fill="#5A3D2B"/>
<path d="M26.4122 29.8621C26.4122 28.2512 26.6517 26.8119 27.1308 25.5443C27.6364 24.2503 28.3416 23.1544 29.2465 22.2565C30.1779 21.3586 31.2956 20.672 32.5996 20.1967C33.9036 19.7213 35.3806 19.4837 37.0306 19.4837C38.8935 19.4837 40.4902 19.7477 41.8209 20.2759C43.1781 20.7777 44.2825 21.4907 45.1341 22.415C46.0124 23.3128 46.6511 24.4088 47.0502 25.7028C47.4494 26.9704 47.649 28.3568 47.649 29.8621C47.649 31.473 47.4095 32.9254 46.9305 34.2195C46.4515 35.487 45.7462 36.5698 44.8148 37.4677C43.91 38.3655 42.7922 39.0522 41.4616 39.5275C40.1576 40.0029 38.6806 40.2405 37.0306 40.2405C35.221 40.2405 33.6508 39.9897 32.3202 39.4879C30.9896 38.9597 29.8852 38.2467 29.0069 37.3488C28.1287 36.4245 27.4767 35.3286 27.0509 34.061C26.6251 32.767 26.4122 31.3674 26.4122 29.8621ZM32.5996 29.8621C32.5996 31.0505 32.6662 32.1464 32.7992 33.1499C32.9589 34.127 33.225 34.9589 33.5976 35.6455C33.9702 36.3321 34.4758 36.8735 35.1145 37.2696C35.7532 37.6393 36.5782 37.8242 37.5895 37.8242C38.175 37.8242 38.7072 37.6921 39.1862 37.4281C39.6653 37.1376 40.0778 36.6886 40.4237 36.0812C40.7697 35.4474 41.0225 34.6288 41.1822 33.6253C41.3685 32.5953 41.4616 31.341 41.4616 29.8621C41.4616 28.6473 41.3818 27.5514 41.2221 26.5743C41.089 25.5972 40.8362 24.7653 40.4636 24.0787C40.1177 23.3921 39.6386 22.8639 39.0266 22.4942C38.4145 22.0981 37.6427 21.9 36.7113 21.9C36.0193 21.9 35.4206 22.0453 34.9149 22.3357C34.4093 22.5998 33.9835 23.0488 33.6375 23.6826C33.2916 24.29 33.0254 25.1086 32.8391 26.1385C32.6795 27.142 32.5996 28.3832 32.5996 29.8621Z" fill="#5A3D2B"/>
<path d="M72.5883 39.7652H62.6086V38.2203C62.8747 38.0619 63.1675 37.9034 63.4868 37.745C63.8328 37.5601 64.2053 37.4016 64.6045 37.2696V29.3867C64.6045 28.172 64.5646 27.142 64.4848 26.297C64.4315 25.4519 64.2985 24.7653 64.0856 24.2371C63.8727 23.6826 63.58 23.2864 63.2074 23.0488C62.8348 22.7847 62.3558 22.6526 61.7703 22.6526C60.9187 22.6526 60.1735 22.9827 59.5348 23.643C58.9228 24.2767 58.4703 25.1218 58.1776 26.1781V37.2696C58.8961 37.4809 59.5615 37.7978 60.1735 38.2203V39.7652H49.7947V38.2203C50.1672 38.0354 50.5797 37.8638 51.0321 37.7053C51.4846 37.5469 51.9503 37.4016 52.4293 37.2696V22.7715L49.7947 22.4546V20.9097C50.2205 20.7248 50.7394 20.5532 51.3515 20.3947C51.9902 20.2363 52.6422 20.1042 53.3075 19.9986C53.9728 19.8666 54.6115 19.7609 55.2236 19.6817C55.8623 19.6025 56.3946 19.5365 56.8204 19.4837H58.1776V23.9599H58.2175C58.6433 22.7187 59.3885 21.6623 60.453 20.7909C61.5441 19.9194 62.8481 19.4837 64.365 19.4837C65.0037 19.4837 65.6291 19.5497 66.2412 19.6817C66.8533 19.8138 67.4122 20.0646 67.9178 20.4343C68.4501 20.7777 68.9025 21.2662 69.275 21.9C69.6476 22.5338 69.9137 23.3525 70.0734 24.356C70.5524 22.9035 71.3508 21.7284 72.4685 20.8305C73.5863 19.9326 74.9435 19.4837 76.5403 19.4837C77.5249 19.4837 78.3898 19.6157 79.135 19.8798C79.9067 20.1174 80.5454 20.5532 81.0511 21.187C81.5833 21.8208 81.9825 22.6791 82.2486 23.7618C82.5148 24.8445 82.6478 26.2178 82.6478 27.8815V37.2696C82.9174 37.3168 83.1847 37.3781 83.4496 37.4534C84.0736 37.631 84.6846 37.8866 85.2825 38.2203V39.7652H74.9036V38.2203C75.5157 37.8242 76.181 37.5073 76.8995 37.2696V28.6737C76.8995 26.6139 76.6999 25.0954 76.3008 24.1183C75.9282 23.1412 75.1032 22.6526 73.8258 22.6526C72.8677 22.6526 72.1093 23.0092 71.5504 23.7222C71.0182 24.4352 70.619 25.3859 70.3528 26.5743V37.2696C70.8053 37.4016 71.2044 37.5469 71.5504 37.7053C71.923 37.8638 72.2689 38.0354 72.5883 38.2203V39.7652Z" fill="#5A3D2B"/>
<path d="M105.155 36.4377C104.942 36.8867 104.596 37.3488 104.117 37.8242C103.665 38.2731 103.093 38.6824 102.401 39.0522C101.735 39.3955 100.95 39.6728 100.046 39.884C99.1674 40.1217 98.2093 40.2405 97.1714 40.2405C95.5214 40.2405 94.0578 40.0029 92.7803 39.5275C91.503 39.0258 90.4385 38.3259 89.5869 37.4281C88.7352 36.5038 88.0832 35.4078 87.6308 34.1402C87.205 32.8726 86.9921 31.4466 86.9921 29.8621C86.9921 26.4818 87.8836 23.907 89.6667 22.1377C91.4497 20.3683 93.9247 19.4837 97.0916 19.4837C98.4488 19.4837 99.7129 19.6685 100.884 20.0382C102.081 20.4079 103.066 21.0153 103.838 21.8604C104.636 22.7055 105.182 23.8146 105.475 25.1878C105.794 26.5611 105.781 28.238 105.435 30.2186H93.1795C93.2062 32.3049 93.7384 33.9686 94.7763 35.2098C95.8408 36.451 97.3976 37.0715 99.4468 37.0715C100.325 37.0715 101.23 36.9395 102.161 36.6754C103.119 36.4113 103.864 36.068 104.397 35.6455L105.155 36.4377ZM96.9319 21.7416C96.3997 21.7416 95.9206 21.834 95.4948 22.0188C95.0956 22.2037 94.7364 22.547 94.417 23.0488C94.1243 23.5241 93.8848 24.1843 93.6985 25.0294C93.5122 25.848 93.3791 26.8912 93.2993 28.1588H99.7262C99.9125 26.0989 99.7928 24.5144 99.367 23.4053C98.9412 22.2961 98.1295 21.7416 96.9319 21.7416Z" fill="#5A3D2B"/>
<path d="M28.7475 65.5132H19.0173V64.007C19.2768 63.8525 19.5622 63.698 19.8736 63.5435C20.2109 63.3633 20.5742 63.2088 20.9634 63.08V55.3942C20.9634 54.2098 20.9244 53.2057 20.8466 52.3817C20.7947 51.5578 20.665 50.8883 20.4574 50.3734C20.2498 49.8327 19.9644 49.4464 19.6011 49.2147C19.2379 48.9572 18.7708 48.8285 18.2 48.8285C17.3697 48.8285 16.6432 49.1503 16.0204 49.794C15.4236 50.412 14.9825 51.2359 14.6971 52.2659V63.08C15.3977 63.286 16.0464 63.595 16.6431 64.007V65.5132H6.52373V64.007C6.88699 63.8267 7.28917 63.6594 7.73028 63.5049C8.17138 63.3504 8.62546 63.2088 9.09251 63.08V48.9444L6.52373 48.6354V47.1291C6.93889 46.9489 7.44486 46.7815 8.04164 46.627C8.66438 46.4725 9.30008 46.3438 9.94876 46.2408C10.5974 46.1121 11.2202 46.0091 11.817 45.9318C12.4397 45.8546 12.9586 45.7902 13.3738 45.7387H14.6971V50.103H14.736C15.1512 48.8929 15.8777 47.8629 16.9156 47.0133C17.9794 46.1636 19.2508 45.7387 20.7298 45.7387C21.3526 45.7387 21.9623 45.8031 22.5591 45.9318C23.1559 46.0606 23.7008 46.3052 24.1938 46.6657C24.7127 47.0004 25.1538 47.4767 25.5171 48.0947C25.8804 48.7126 26.1398 49.5108 26.2955 50.4892C26.7626 49.0731 27.541 47.9273 28.6308 47.0519C29.7206 46.1764 31.0439 45.7387 32.6007 45.7387C33.5607 45.7387 34.404 45.8675 35.1305 46.1249C35.883 46.3567 36.5057 46.7815 36.9987 47.3995C37.5177 48.0174 37.9069 48.8542 38.1664 49.9099C38.4258 50.9656 38.5556 52.3045 38.5556 53.9266V63.08C39.4378 63.2345 40.294 63.5435 41.1244 64.007V65.5132H31.0049V64.007C31.6017 63.6207 32.2504 63.3118 32.951 63.08V54.699C32.951 52.6907 32.7564 51.2102 32.3672 50.2575C32.0039 49.3048 31.1995 48.8285 29.9541 48.8285C29.02 48.8285 28.2805 49.1761 27.7356 49.8713C27.2166 50.5665 26.8274 51.4934 26.568 52.6521V63.08C27.0091 63.2088 27.3983 63.3504 27.7356 63.5049C28.0988 63.6594 28.4362 63.8267 28.7475 64.007V65.5132Z" fill="#5A3D2B"/>
<path d="M59.8775 59.913C59.8775 60.4795 59.8775 60.9687 59.8775 61.3807C59.9035 61.7926 59.9424 62.2303 59.9943 62.6938L62.6798 63.08V64.4318C62.3684 64.5863 61.9403 64.7408 61.3954 64.8953C60.8765 65.0498 60.3186 65.2042 59.7218 65.3587C59.151 65.4875 58.5801 65.5905 58.0093 65.6677C57.4385 65.7707 56.9325 65.8479 56.4914 65.8994H55.1681C54.9086 65.3072 54.7529 64.715 54.701 64.1228C54.6491 63.5306 54.6102 62.8097 54.5843 61.96H54.3897C54.2599 62.475 54.0394 62.977 53.728 63.4663C53.4166 63.9297 53.0145 64.3546 52.5215 64.7408C52.0544 65.1013 51.4966 65.3974 50.8479 65.6291C50.1992 65.8608 49.4727 65.9767 48.6683 65.9767C47.812 65.9767 47.0207 65.8479 46.2941 65.5905C45.5676 65.333 44.9319 64.9725 44.387 64.509C43.8421 64.0456 43.414 63.492 43.1026 62.8483C42.7913 62.1788 42.6356 61.4322 42.6356 60.6082C42.6356 59.4496 42.8561 58.4969 43.2972 57.7502C43.7383 57.0035 44.4259 56.3984 45.36 55.935C46.3201 55.4457 47.5396 55.0853 49.0186 54.8535C50.5235 54.6218 52.3398 54.4544 54.4675 54.3514C54.6751 52.1371 54.5843 50.515 54.1951 49.4851C53.8059 48.4551 52.9626 47.9402 51.6652 47.9402C50.8608 47.9402 50.1214 48.0689 49.4467 48.3264L47.6174 52.9611H45.9049C45.6974 52.6521 45.4898 52.3045 45.2822 51.9183C45.1006 51.5063 44.9189 51.0814 44.7373 50.6437C44.5816 50.1803 44.4389 49.7168 44.3092 49.2533C44.2054 48.7899 44.1275 48.3393 44.0756 47.9016C45.0616 47.2321 46.3331 46.7043 47.8899 46.3181C49.4467 45.9318 51.0944 45.7387 52.8328 45.7387C54.3118 45.7387 55.5184 45.9061 56.4525 46.2408C57.3866 46.5498 58.1131 46.9875 58.632 47.554C59.1769 48.0947 59.5532 48.7384 59.7607 49.4851C59.9683 50.2318 60.0721 51.0299 60.0721 51.8796C60.0721 53.4245 60.0332 54.8278 59.9553 56.0894C59.9035 57.3253 59.8775 58.5999 59.8775 59.913ZM51.1203 62.8869C51.6652 62.8869 52.1323 62.7839 52.5215 62.5779C52.9107 62.372 53.235 62.1274 53.4945 61.8441C53.7799 61.5609 53.9875 61.2519 54.1172 60.9172C54.2729 60.5825 54.3897 60.2864 54.4675 60.0289V56.1667C53.248 56.1924 52.249 56.2697 51.4706 56.3984C50.6922 56.5272 50.0824 56.746 49.6413 57.055C49.2002 57.3382 48.8889 57.7116 48.7072 58.175C48.5515 58.6127 48.4737 59.1535 48.4737 59.7972C48.4737 60.7756 48.7072 61.5351 49.1743 62.0759C49.6413 62.6166 50.29 62.8869 51.1203 62.8869Z" fill="#5A3D2B"/>
<path d="M77.7282 61.6896C77.5984 62.2561 77.3649 62.7968 77.0276 63.3118C76.6903 63.8267 76.2881 64.2902 75.8211 64.7022C75.354 65.0884 74.8221 65.3974 74.2253 65.6291C73.6285 65.8608 72.9928 65.9767 72.3182 65.9767C69.7494 65.9767 67.7904 65.1785 66.4411 63.5821C65.1178 61.96 64.4562 59.4882 64.4562 56.1667C64.4562 54.4673 64.6897 52.9868 65.1568 51.7251C65.6238 50.4377 66.2725 49.3563 67.1028 48.4809C67.9591 47.6055 68.984 46.9489 70.1775 46.5112C71.3711 46.0735 72.6944 45.8546 74.1475 45.8546C74.6145 45.8546 75.0037 45.8675 75.3151 45.8932C75.6524 45.919 75.9508 45.9576 76.2103 46.0091C76.4957 46.0348 76.7552 46.0992 76.9887 46.2022C77.2482 46.2794 77.5336 46.3696 77.8449 46.4725V39.6751L74.887 39.3661V37.8598C75.2502 37.7053 75.7432 37.5637 76.366 37.435C77.0146 37.3062 77.6893 37.1904 78.3898 37.0874C79.0904 36.9586 79.778 36.8428 80.4526 36.7398C81.1273 36.6368 81.6851 36.5467 82.1262 36.4694L82.3822 37.4534H83.4496V62.7711L86.0183 63.08V64.4318C85.6551 64.612 85.188 64.7794 84.6172 64.9339C84.0463 65.0884 83.4496 65.23 82.8268 65.3587C82.2041 65.4875 81.5943 65.5905 80.9975 65.6677C80.4267 65.7707 79.9467 65.8479 79.5575 65.8994H78.2342L77.8839 61.6896H77.7282ZM74.1864 62.8869C75.0945 62.8869 75.86 62.6037 76.4827 62.0372C77.1055 61.4708 77.5595 60.5052 77.8449 59.1406V48.7512C77.5076 48.5453 77.0795 48.3779 76.5606 48.2492C76.0676 48.1204 75.4448 48.056 74.6924 48.056C73.1874 48.056 72.1106 48.7384 71.4619 50.103C70.8133 51.4419 70.4889 53.3988 70.4889 55.9736C70.4889 58.0592 70.7743 59.7328 71.3452 60.9944C71.916 62.2561 72.8631 62.8869 74.1864 62.8869Z" fill="#5A3D2B"/>
<path d="M105.464 62.269C105.257 62.7067 104.92 63.1573 104.453 63.6207C104.011 64.0585 103.454 64.4576 102.779 64.818C102.13 65.1527 101.365 65.4231 100.483 65.6291C99.6263 65.8608 98.6922 65.9767 97.6803 65.9767C96.0716 65.9767 94.6445 65.745 93.399 65.2815C92.1535 64.7923 91.1156 64.11 90.2853 63.2345C89.455 62.3333 88.8193 61.2648 88.3782 60.0289C87.963 58.793 87.7555 57.4026 87.7555 55.8577C87.7555 52.562 88.6247 50.0515 90.3632 48.3264C92.1016 46.6013 94.5147 45.7387 97.6024 45.7387C98.9258 45.7387 100.158 45.919 101.3 46.2794C102.468 46.6399 103.428 47.2321 104.18 48.056C104.958 48.88 105.49 49.9614 105.776 51.3003C106.087 52.6392 106.074 54.2742 105.737 56.2053H93.7882C93.8141 58.2394 94.3331 59.8615 95.345 61.0717C96.3829 62.2818 97.9008 62.8869 99.8988 62.8869C100.755 62.8869 101.637 62.7582 102.545 62.5007C103.479 62.2432 104.206 61.9085 104.725 61.4965L105.464 62.269ZM97.4468 47.9402C96.9278 47.9402 96.4608 48.0303 96.0456 48.2105C95.6564 48.3908 95.3061 48.7255 94.9947 49.2147C94.7093 49.6782 94.4758 50.3219 94.2942 51.1458C94.1125 51.944 93.9828 52.9611 93.905 54.197H100.171C100.353 52.1886 100.236 50.6437 99.8209 49.5623C99.4058 48.4809 98.6144 47.9402 97.4468 47.9402Z" fill="#5A3D2B"/>
</svg>
