<svg width="217" height="174" viewBox="0 0 217 174" fill="none" xmlns="http://www.w3.org/2000/svg">
<path d="M205.05 137.202C205.05 137.202 200.689 130.26 194.033 135.863C189.526 139.657 182.587 136.672 178.576 134.348C177.278 133.603 175.843 133.128 174.357 132.952C172.871 132.776 171.365 132.902 169.929 133.323C163.409 135.204 153.902 140.383 157.948 154.422C162.909 171.634 187.566 163.382 195.656 160.152C197.455 159.431 199.025 158.236 200.197 156.694C203.421 152.471 207.354 145.849 205.05 137.202Z" fill="#E9B292"/>
<path d="M187.766 137.633C187.766 137.633 174.299 152.255 183.798 164.07C183.798 164.07 193.26 163.363 200.205 156.694C200.205 156.694 190.45 152.113 191.351 136.177L187.766 137.633Z" fill="#B75026"/>
<path d="M158.711 156.717C158.838 156.627 157.305 150.526 157.246 150.048C156.683 145.503 156.918 140.688 158.822 136.461C164.164 124.609 180.951 123.124 191.69 127.297C192.394 127.527 193.042 127.901 193.592 128.395C193.864 128.647 194.062 128.968 194.165 129.323C194.268 129.679 194.271 130.056 194.175 130.414C193.77 131.573 192.24 131.795 191.014 131.719C188.026 131.538 187.754 132.729 186.137 134.887C185.191 136.163 184.143 137.361 183.004 138.469L158.711 156.717Z" fill="#E9B292"/>
<path d="M184.468 137.001C181.529 137.807 178.205 138.593 175.504 140.178C172.873 141.711 170.603 143.791 168.848 146.278C165.238 151.437 163.882 157.405 165.632 163.454C159.808 161.138 156.985 155.119 156.984 148.949C156.983 142.778 160.923 136.639 166.742 134.585C169.777 133.513 173.074 133.534 176.292 133.567C177.725 133.514 179.157 133.664 180.548 134.012C181.917 134.423 184.199 135.279 184.797 136.576" fill="#B75026"/>
<path d="M66.1774 68.5741C67.9901 69.6833 71.0053 70.0026 71.2527 72.1202C71.4627 73.9146 69.3581 77.2431 68.5717 78.8614C66.8581 82.3881 63.8557 85.3083 60.7702 87.7291C56.075 91.4139 53.5041 93.976 47.573 94.39C42.0274 94.776 33.2397 92.3019 28.4446 89.4893C21.803 85.5925 15.7564 80.3665 12.0354 73.6273C8.31443 66.8881 7.13881 58.5128 10.0249 51.3802C11.5601 47.6266 14.0952 44.3656 17.3547 41.9516C21.6436 38.7987 26.9049 37.2534 32.2189 37.5856C37.4805 37.9324 45.4269 41.0663 48.589 45.2872C51.1046 48.6444 49.6506 52.6247 48.3494 56.6115C47.6791 58.6059 46.547 60.4137 45.0454 61.8877C43.5438 63.3616 41.7151 64.4602 39.7082 65.0937C37.5795 65.744 34.0125 64.0128 33.0157 66.0027C32.0819 67.8655 34.2341 72.3041 36.0217 73.3773C37.8093 74.4506 39.9903 74.5697 42.0732 74.6597L51.5629 75.0698C54.4752 75.1958 57.4593 75.3125 60.2362 74.4263C62.816 73.1952 64.908 71.1346 66.1774 68.5741Z" fill="#E9B292"/>
<path d="M28.4822 39.212C22.8705 39.4844 19.0468 43.1471 15.2298 47.2689C11.4127 51.3906 10.1248 58.0878 13.2352 62.7657C14.6627 64.7607 16.5706 66.3636 18.7821 67.4261C23.0561 69.6351 27.8978 70.5017 32.6724 69.9122C31.9705 69.5078 31.4563 68.8431 31.2413 68.0623C31.0263 67.2815 31.1278 66.4475 31.5238 65.7411C32.7558 63.483 36.8041 64.2907 37.2722 62.0705C37.677 60.1631 34.0677 57.4371 33.0953 55.8641C31.7201 53.6445 30.7722 51.1875 30.3003 48.6199C30.1838 47.9445 27.6188 39.2573 28.4822 39.212Z" fill="#B75026"/>
<path d="M32.0096 82.3211C30.6415 83.033 29.1407 83.4537 27.6017 83.5568C26.0627 83.6598 24.519 83.4429 23.0679 82.9197C25.4076 85.2124 28.0539 87.1698 30.9311 88.7362C33.8282 90.3036 37.1286 90.967 40.4062 90.6406C42.0368 90.4614 43.6051 89.9135 44.9922 89.0384C46.3793 88.1633 47.5489 86.984 48.4124 85.5898C49.2383 84.1722 49.6137 82.5371 49.4889 80.9012C49.364 79.2653 48.7448 77.7058 47.7133 76.4295C45.3013 76.1966 39.7776 74.9371 37.6381 75.3434C36.319 75.594 36.2222 78.5148 35.3776 79.5489C34.4516 80.6887 33.3063 81.6314 32.0096 82.3211Z" fill="#B75026"/>
<path d="M117.732 77.3994C116.003 76.837 113.429 77.1715 112.802 75.458C112.269 74.006 113.359 70.8162 113.691 69.3125C114.416 66.0356 116.334 63.0069 118.42 60.3774C121.595 56.3753 123.225 53.7306 128.08 52.2052C132.619 50.7798 140.427 51.0898 144.979 52.4765C151.283 54.3981 157.357 57.5446 161.797 62.4138C166.236 67.2831 168.882 74.0209 167.899 80.533C167.369 83.9634 165.908 87.1827 163.675 89.8411C160.732 93.3196 156.66 95.6535 152.171 96.4349C147.722 97.1937 140.483 96.1669 137.01 93.2828C134.248 90.989 134.665 87.3861 134.955 83.8082C135.116 82.0146 135.698 80.2843 136.655 78.7584C137.611 77.2324 138.915 75.9539 140.46 75.0269C142.102 74.0618 145.416 74.7928 145.85 72.9378C146.256 71.2013 143.581 67.9349 141.879 67.3973C140.177 66.8598 138.338 67.1949 136.586 67.5346L128.605 69.0825C126.156 69.5575 123.648 70.0544 121.513 71.345C119.611 72.8834 118.279 75.0152 117.732 77.3994Z" fill="#E9B292"/>
<path d="M154.957 94.337C159.574 92.9931 162.028 89.1828 164.385 84.9917C166.742 80.8006 166.481 74.9692 162.96 71.6943C161.375 70.3178 159.467 69.3633 157.415 68.9191C153.417 67.9311 149.214 68.1737 145.357 69.615C146.022 69.8119 146.582 70.2629 146.917 70.8701C147.251 71.4772 147.333 72.1917 147.144 72.8585C146.568 74.9836 143.037 75.1172 143.089 77.0586C143.132 78.727 146.679 80.2776 147.802 81.3935C149.388 82.9674 150.667 84.824 151.571 86.8675C151.802 87.4064 155.667 94.1274 154.957 94.337Z" fill="#B75026"/>
<path d="M143.438 59.1533C144.435 58.2883 145.601 57.6393 146.862 57.2471C148.122 56.855 149.451 56.7282 150.763 56.8748C148.359 55.4321 145.766 54.3295 143.059 53.5984C140.335 52.8704 137.456 52.9752 134.792 53.8995C133.471 54.3733 132.274 55.1416 131.294 56.1463C130.313 57.1509 129.574 58.3655 129.133 59.6979C128.728 61.0424 128.741 62.4783 129.171 63.8153C129.6 65.1522 130.426 66.3271 131.539 67.1842C133.593 66.8979 138.442 66.8466 140.142 66.0824C141.19 65.6112 140.689 63.1605 141.187 62.1315C141.731 60.9983 142.496 59.9857 143.438 59.1533Z" fill="#B75026"/>
</svg>
