<svg width="511" height="309" viewBox="0 0 511 309" fill="none" xmlns="http://www.w3.org/2000/svg">
<path d="M402.95 113.114C321.882 225.718 354.841 271.762 440.246 183.177C525.652 94.5921 512.298 140.095 506.793 155.651C501.656 170.164 483.725 196.026 473.576 209.207C432.056 250.746 386.303 313.013 298.768 308.797C184.483 303.291 257.677 183.177 301.505 174.673C333.775 168.413 312.465 129.626 294.287 126.623C271.316 122.828 234.991 123.62 220.237 201.194C209.771 256.225 108.616 285.627 82.8378 280.775C8.35974 266.757 -23.7429 151.146 19.4309 81.0836C50.1747 31.1924 149.553 1.67406 209.906 0.00579527C293.801 -0.494685 461.796 31.376 402.95 113.114Z" fill="#DCC2AF"/>
</svg>
